<svg xmlns="http://www.w3.org/2000/svg" viewBox="0 0 1606.7 523.34"><defs><style>.cls-1,.cls-3{fill:none;stroke:#fff;stroke-linecap:round;}.cls-1{stroke-width:20px;}.cls-2,.cls-4,.cls-5{fill:#fff;}.cls-4{font-size:227.27px;font-family:BEYNO;letter-spacing:0.04em;}.cls-5{font-size:131.31px;font-family:Barlow-ExtraLight, Barlow;font-weight:200;}.cls-6{letter-spacing:-0.04em;}.cls-7{letter-spacing:-0.01em;}.cls-8{letter-spacing:-0.01em;}.cls-9{letter-spacing:-0.01em;}</style></defs><g id="Layer_2" data-name="Layer 2"><g id="Layer_1-2" data-name="Layer 1"><path class="cls-1" d="M87.25,124.23c-23,31.56-43.84,41.39-63,33,13.89,23.63,28.51,34.71,44,31,.2,29.93-14,52.8-44,68,39.31-2.2,55.45,20.21,59,56,33.31-52.17,57-81,114-72-1,9.41-13.95,23.1-33,39,55.66-2.61,101.66-11.47,125-35,19.38,16.87,22.46,35,2,55,38.64-.85,63-14.59,70-44,34.67,11.42,51.73,29.79,49,56,29.17-12.48,37.62-27,21-44,47.25,7.54,69,31.91,62,75.36,57-75.36-20-148.36,24-219.36-20.85,13.75-36.59,29.79-43,50-19.56-58.06-43.47-94.18-72-107,8.6,28.3,12.21,51.32,7,65-50.17-21.83-92-51.9-119-92l27,83c-68.74-13.32-124-42.83-158-98-8,26.76-3.84,53.77,12,81-46.84-16.22-94.63-26.76-139-58C32,83.9,51.65,108.76,87.25,124.23Z"/><path class="cls-2" d="M487.17,359.33,487,400.19l-14,5.68c-1.81,58.08-15.72,106.68-45.47,114.82-20.82,3.26-43.58,2.57-67.45-.38-34.49-6.82-58-19.32-71.37-74.4-5.43-3.53-16.42-3.28-21.66.51-8,43.58-31.52,68.46-67.27,73.52-26,2.39-60.38,4.16-68.84,1.76-21.85-5.93-45-30.44-47.62-115.45L69,399.68V359.89l6.27-4.66c97.81,5,163,17.74,181.43,41.67a123.06,123.06,0,0,0,40.42.21C329,372.59,385.77,357,481.56,355.23Zm-32.05,30.44c-2.48-5.86-6.07-9.48-11-10.45-80.37-.07-128.6,12.78-138.31,41.14-1.13,20.74,1.84,40.68,14.4,58.74,16.23,16.73,49.09,25.79,101.37,25.9C445.11,496.2,454.82,454.22,455.12,389.77Zm-223.2,92.78c17.69-17.94,21.31-43.52,17.44-61.9-9-30.92-59-42.82-138.19-41.18a24.06,24.06,0,0,0-10.11,9.35c-2.91,48.43,7.33,101.81,31.33,115C147.54,508.31,213.73,501.24,231.92,482.55Z"/><path class="cls-3" d="M75.25,355.23,69,359.89v39.79l14.27,6.57c2.65,85,25.77,109.52,47.62,115.45,8.46,2.4,42.84.63,68.84-1.76C235.46,514.88,259,490,267,446.42c5.24-3.79,16.23-4,21.66-.51C302,501,325.52,513.49,360,520.31c23.87,3,46.63,3.64,67.45.38,29.75-8.14,43.66-56.74,45.47-114.82l14-5.68.21-40.86-5.61-4.1C385.77,357,329,372.59,297.1,397.11a123.06,123.06,0,0,1-40.42-.21C238.28,373,173.06,360.21,75.25,355.23Z"/><path class="cls-3" d="M111.17,379.47c79.22-1.64,129.22,10.26,138.19,41.18,3.87,18.38.25,44-17.44,61.9-18.19,18.69-84.38,25.76-99.53,21.22-24-13.14-34.24-66.52-31.33-114.95A24.06,24.06,0,0,1,111.17,379.47Z"/><path class="cls-3" d="M444.13,379.32c-80.37-.07-128.6,12.78-138.31,41.14-1.13,20.74,1.84,40.68,14.4,58.74,16.23,16.73,49.09,25.79,101.37,25.9,23.52-8.9,33.23-50.88,33.53-115.33C452.64,383.91,449.05,380.29,444.13,379.32Z"/><text class="cls-4" transform="translate(586.96 295.13) scale(0.98 1)">RAN.DEV</text><text class="cls-5" transform="translate(671.37 441.37) scale(0.98 1)"><tspan class="cls-6">W</tspan><tspan x="109.78" y="0">eb D</tspan><tspan class="cls-7" x="357.04" y="0">e</tspan><tspan class="cls-8" x="425.59" y="0">v</tspan><tspan x="484.02" y="0">elo</tspan><tspan class="cls-9" x="652.62" y="0">p</tspan><tspan x="723.01" y="0">er</tspan></text></g></g></svg>